<svg xmlns="http://www.w3.org/2000/svg" width="1200" height="700" viewBox="0 0 1200 700">
  <defs>
    <linearGradient id="bg" x1="0%" y1="0%" x2="100%" y2="100%">
      <stop offset="0%" style="stop-color:#0d1117"/>
      <stop offset="100%" style="stop-color:#0d1117"/>
    </linearGradient>
  </defs>

  <rect width="1200" height="700" fill="url(#bg)"/>

  <!-- Tab bar -->
  <rect x="0" y="0" width="1200" height="38" fill="#1f2430" stroke="#2a2d3e" stroke-width="1"/>
  <rect x="0" y="0" width="150" height="38" fill="#1a1a2e" stroke="#333" stroke-width="1"/>
  <text x="10" y="22" font-family="monospace" font-size="11" fill="#aaa">main.py</text>
  <rect x="150" y="0" width="130" height="38" fill="#1f2430" stroke="#333" stroke-width="0.5"/>
  <text x="162" y="22" font-family="monospace" font-size="11" fill="#666">api_client.py</text>
  <rect x="280" y="0" width="140" height="38" fill="#1f2430" stroke="#333" stroke-width="0.5"/>
  <text x="292" y="22" font-family="monospace" font-size="11" fill="#666">utils.py</text>

  <!-- Sidebar file tree -->
  <rect x="0" y="38" width="220" height="622" fill="#161b22" stroke="#21262d" stroke-width="1"/>
  <text x="10" y="62" font-family="sans-serif" font-size="12" fill="#666" font-weight="bold">EXPLORER</text>
  <!-- Files -->
  <text x="10" y="86" font-family="sans-serif" font-size="12" fill="#ccc">📁 brainstormer-4</text>
  <text x="22" y="108" font-family="sans-serif" font-size="11" fill="#aaa">📁 src</text>
  <text x="34" y="128" font-family="sans-serif" font-size="11" fill="#aaa">📁 components</text>
  <rect x="0" y="136" width="220" height="20" fill="#1f6feb" opacity="0.2"/>
  <text x="46" y="150" font-family="sans-serif" font-size="11" fill="#58a6ff">📄 main.py</text>
  <text x="46" y="170" font-family="sans-serif" font-size="11" fill="#aaa">📄 api_client.py</text>
  <text x="46" y="190" font-family="sans-serif" font-size="11" fill="#aaa">📄 utils.py</text>
  <text x="46" y="210" font-family="sans-serif" font-size="11" fill="#aaa">📄 config.py</text>
  <text x="34" y="230" font-family="sans-serif" font-size="11" fill="#aaa">📁 services</text>
  <text x="34" y="250" font-family="sans-serif" font-size="11" fill="#aaa">📁 types</text>
  <text x="22" y="270" font-family="sans-serif" font-size="11" fill="#aaa">📄 package.json</text>
  <text x="22" y="290" font-family="sans-serif" font-size="11" fill="#aaa">📄 vite.config.ts</text>
  <text x="22" y="310" font-family="sans-serif" font-size="11" fill="#aaa">📄 tsconfig.json</text>
  <text x="22" y="330" font-family="sans-serif" font-size="11" fill="#aaa">📄 README.md</text>

  <!-- Main editor area -->
  <rect x="220" y="38" width="720" height="622" fill="#0d1117"/>

  <!-- Line numbers + code -->
  <!-- Line numbers -->
  <g font-family="monospace" font-size="13" fill="#3a3d4a">
    <text x="228" y="80">1</text>
    <text x="228" y="100">2</text>
    <text x="228" y="120">3</text>
    <text x="228" y="140">4</text>
    <text x="228" y="160">5</text>
    <text x="228" y="180">6</text>
    <text x="228" y="200">7</text>
    <text x="228" y="220">8</text>
    <text x="228" y="240">9</text>
    <text x="220" y="260">10</text>
    <text x="220" y="280">11</text>
    <text x="220" y="300">12</text>
    <text x="220" y="320">13</text>
    <text x="220" y="340">14</text>
    <text x="220" y="360">15</text>
    <text x="220" y="380">16</text>
    <text x="220" y="400">17</text>
    <text x="220" y="420">18</text>
    <text x="220" y="440">19</text>
    <text x="220" y="460">20</text>
    <text x="220" y="480">21</text>
    <text x="220" y="500">22</text>
    <text x="220" y="520">23</text>
    <text x="220" y="540">24</text>
    <text x="220" y="560">25</text>
    <text x="220" y="580">26</text>
    <text x="220" y="600">27</text>
    <text x="220" y="620">28</text>
  </g>

  <!-- Code content -->
  <g font-family="monospace" font-size="13">
    <!-- Line 1 -->
    <text x="256" y="80" fill="#ff79c6">import</text>
    <text x="302" y="80" fill="#f8f8f2"> openai</text>
    <text x="350" y="80" fill="#6272a4">, </text>
    <text x="364" y="80" fill="#f8f8f2">asyncio</text>
    <text x="420" y="80" fill="#6272a4">, </text>
    <text x="434" y="80" fill="#f8f8f2">json</text>
    <!-- Line 2: blank -->
    <!-- Line 3 -->
    <text x="256" y="120" fill="#ff79c6">from</text>
    <text x="292" y="120" fill="#f8f8f2"> .config </text>
    <text x="360" y="120" fill="#ff79c6">import</text>
    <text x="406" y="120" fill="#f8f8f2"> settings</text>
    <!-- Line 4: blank -->
    <!-- Line 5 -->
    <text x="256" y="160" fill="#6272a4"># brAInstormer — multi-modal AI agent</text>
    <!-- Line 6 -->
    <text x="256" y="180" fill="#ff79c6">class</text>
    <text x="298" y="180" fill="#50fa7b"> BrAInstormerClient</text>
    <text x="488" y="180" fill="#f8f8f2">:</text>
    <!-- Line 7 -->
    <rect x="256" y="192" width="680" height="18" fill="#1f6feb" opacity="0.1"/>
    <text x="272" y="204" fill="#ff79c6">    def</text>
    <text x="308" y="204" fill="#50fa7b"> __init__</text>
    <text x="380" y="204" fill="#f8f8f2">(self, api_key: </text>
    <text x="494" y="204" fill="#8be9fd">str</text>
    <text x="516" y="204" fill="#f8f8f2">):</text>
    <!-- Line 8 -->
    <text x="272" y="224" fill="#f8f8f2">        self.client = openai.OpenAI(api_key=api_key)</text>
    <!-- Line 9 -->
    <text x="272" y="244" fill="#f8f8f2">        self.history = []</text>
    <!-- Line 10, blank -->
    <!-- Line 11 -->
    <text x="272" y="284" fill="#ff79c6">    async def</text>
    <text x="356" y="284" fill="#50fa7b"> generate_image</text>
    <text x="476" y="284" fill="#f8f8f2">(self, prompt: </text>
    <text x="580" y="284" fill="#8be9fd">str</text>
    <text x="602" y="284" fill="#f8f8f2">) -> </text>
    <text x="634" y="284" fill="#8be9fd">dict</text>
    <text x="656" y="284" fill="#f8f8f2">:</text>
    <!-- Line 12 -->
    <text x="272" y="304" fill="#6272a4">        """Generate an image using DALL·E 3."""</text>
    <!-- Line 13 -->
    <text x="272" y="324" fill="#f8f8f2">        response = </text>
    <text x="372" y="324" fill="#ff79c6">await</text>
    <text x="408" y="324" fill="#f8f8f2"> self.client.images.generate(</text>
    <!-- Line 14 -->
    <text x="272" y="344" fill="#f8f8f2">            model=</text>
    <text x="366" y="344" fill="#f1fa8c">"dall-e-3"</text>
    <text x="434" y="344" fill="#f8f8f2">,</text>
    <!-- Line 15 -->
    <text x="272" y="364" fill="#f8f8f2">            prompt=prompt,</text>
    <!-- Line 16 -->
    <text x="272" y="384" fill="#f8f8f2">            size=</text>
    <text x="350" y="384" fill="#f1fa8c">"1024x1024"</text>
    <text x="428" y="384" fill="#f8f8f2">,</text>
    <!-- Line 17 -->
    <text x="272" y="404" fill="#f8f8f2">        )</text>
    <!-- Line 18 -->
    <text x="272" y="424" fill="#ff79c6">        return</text>
    <text x="336" y="424" fill="#f8f8f2"> {</text>
    <text x="350" y="424" fill="#f1fa8c">"url"</text>
    <text x="390" y="424" fill="#f8f8f2">: response.data[</text>
    <text x="496" y="424" fill="#bd93f9">0</text>
    <text x="504" y="424" fill="#f8f8f2">].url, </text>
    <text x="546" y="424" fill="#f1fa8c">"model"</text>
    <text x="600" y="424" fill="#f8f8f2">: </text>
    <text x="612" y="424" fill="#f1fa8c">"dall-e-3"</text>
    <text x="680" y="424" fill="#f8f8f2">}</text>
  </g>

  <!-- Cursor blink -->
  <rect x="258" y="430" width="2" height="16" fill="#f8f8f2" opacity="0.9"/>

  <!-- AI Assistant panel -->
  <rect x="940" y="38" width="260" height="622" fill="#161b22" stroke="#21262d" stroke-width="1"/>
  <text x="956" y="68" font-family="sans-serif" font-size="13" font-weight="bold" fill="#ccc">AI Assistant</text>
  <line x1="940" y1="76" x2="1200" y2="76" stroke="#21262d" stroke-width="1"/>

  <!-- AI suggestion bubble -->
  <rect x="952" y="88" width="236" height="80" rx="8" fill="#1f2d3d" stroke="#1f6feb" stroke-width="1"/>
  <text x="964" y="106" font-family="sans-serif" font-size="11" fill="#58a6ff">💡 Suggestion</text>
  <text x="964" y="122" font-family="sans-serif" font-size="11" fill="#ccc">Add error handling for</text>
  <text x="964" y="138" font-family="sans-serif" font-size="11" fill="#ccc">API rate limits with</text>
  <text x="964" y="154" font-family="sans-serif" font-size="11" fill="#ccc">exponential backoff.</text>

  <!-- Fix button -->
  <rect x="952" y="174" width="100" height="26" rx="6" fill="#238636"/>
  <text x="1002" y="191" font-family="sans-serif" font-size="11" fill="#fff" text-anchor="middle">Apply Fix</text>
  <rect x="1060" y="174" width="80" height="26" rx="6" fill="#21262d" stroke="#444"/>
  <text x="1100" y="191" font-family="sans-serif" font-size="11" fill="#888" text-anchor="middle">Dismiss</text>

  <!-- Chat with AI -->
  <line x1="940" y1="216" x2="1200" y2="216" stroke="#21262d" stroke-width="1"/>
  <text x="952" y="240" font-family="sans-serif" font-size="12" fill="#888">Chat with AI about your code</text>

  <!-- AI chat messages -->
  <rect x="952" y="252" width="236" height="58" rx="8" fill="#1e1e3a"/>
  <text x="964" y="270" font-family="sans-serif" font-size="11" fill="#aaa">Can you add a streaming</text>
  <text x="964" y="286" font-family="sans-serif" font-size="11" fill="#aaa">response handler to the</text>
  <text x="964" y="302" font-family="sans-serif" font-size="11" fill="#aaa">generate method?</text>

  <rect x="952" y="320" width="236" height="78" rx="8" fill="#0d3044" stroke="#1f6feb" stroke-width="0.5"/>
  <text x="964" y="338" font-family="sans-serif" font-size="11" fill="#58a6ff">AI ·</text>
  <text x="986" y="338" font-family="sans-serif" font-size="11" fill="#aaa"> Sure! Here's the update:</text>
  <text x="964" y="356" font-family="monospace" font-size="10" fill="#50fa7b">async for chunk in</text>
  <text x="964" y="372" font-family="monospace" font-size="10" fill="#50fa7b">  stream.text_stream:</text>
  <text x="964" y="388" font-family="monospace" font-size="10" fill="#f8f8f2">  yield chunk</text>

  <!-- Input -->
  <rect x="952" y="560" width="236" height="36" rx="8" fill="#1e1e3a" stroke="#333" stroke-width="1"/>
  <text x="964" y="582" font-family="sans-serif" font-size="11" fill="#555">Ask about your code...</text>

  <!-- Terminal at bottom -->
  <rect x="220" y="580" width="720" height="80" fill="#0a0a10" stroke="#21262d" stroke-width="1"/>
  <text x="234" y="600" font-family="sans-serif" font-size="11" fill="#555">TERMINAL</text>
  <text x="234" y="618" font-family="monospace" font-size="12" fill="#22c55e">$ python main.py</text>
  <text x="234" y="636" font-family="monospace" font-size="12" fill="#ccc">brAInstormer client initialized ✓</text>
  <text x="234" y="652" font-family="monospace" font-size="12" fill="#ccc">Generating image... <tspan fill="#22c55e">done</tspan></text>
</svg>
